<svg xmlns="http://www.w3.org/2000/svg" xmlns:xlink="http://www.w3.org/1999/xlink" preserveAspectRatio="xMidYMid" width="11" height="11" viewBox="0 0 11 11">
  <defs>
    <style>
      .cls-1 {
        fill: #322c2c;
        fill-rule: evenodd;
      }
    </style>
  </defs>
  <path d="M11.000,5.506 C11.000,5.744 10.871,5.943 10.687,6.066 L5.968,10.798 C5.702,11.064 5.271,11.064 5.005,10.798 C4.739,10.532 4.739,10.100 5.005,9.834 L8.637,6.193 L0.687,6.193 C0.307,6.193 -0.000,5.885 -0.000,5.506 C-0.000,5.127 0.307,4.819 0.687,4.819 L8.656,4.819 L5.005,1.158 C4.739,0.892 4.739,0.461 5.005,0.194 C5.271,-0.072 5.702,-0.072 5.968,0.194 L10.712,4.952 C10.737,4.970 10.765,4.979 10.788,5.001 C10.812,5.026 10.822,5.058 10.842,5.085 C10.935,5.202 11.000,5.344 11.000,5.506 Z" class="cls-1"/>
</svg>
