<svg xmlns="http://www.w3.org/2000/svg" xmlns:xlink="http://www.w3.org/1999/xlink" preserveAspectRatio="xMidYMid" width="17" height="17" viewBox="0 0 17 17">
  <defs>
    <style>
      .cls-1 {
        fill: #000;
        fill-rule: evenodd;
      }
    </style>
  </defs>
  <path d="M15.587,16.999 L1.418,16.999 C0.637,16.999 0.002,16.364 0.002,15.580 L0.002,3.007 C0.002,2.225 0.637,1.590 1.418,1.590 L3.722,1.590 L3.722,0.530 C3.722,0.236 3.958,-0.003 4.250,-0.003 C4.544,-0.003 4.783,0.236 4.783,0.530 L4.783,1.590 L7.971,1.590 L7.971,0.530 C7.971,0.236 8.209,-0.003 8.502,-0.003 C8.795,-0.003 9.035,0.236 9.035,0.530 L9.035,1.590 L12.220,1.590 L12.220,0.530 C12.220,0.236 12.458,-0.003 12.752,-0.003 C13.045,-0.003 13.283,0.236 13.283,0.530 L13.283,1.590 L15.587,1.590 C16.368,1.590 17.003,2.225 17.003,3.007 L17.003,15.580 C17.003,16.364 16.368,16.999 15.587,16.999 ZM15.940,3.007 C15.940,2.812 15.781,2.654 15.587,2.654 L13.283,2.654 L13.283,3.718 C13.283,4.011 13.045,4.246 12.752,4.246 C12.458,4.246 12.220,4.011 12.220,3.718 L12.220,2.654 L9.035,2.654 L9.035,3.718 C9.035,4.011 8.795,4.246 8.502,4.246 C8.209,4.246 7.971,4.011 7.971,3.718 L7.971,2.654 L4.783,2.654 L4.783,3.718 C4.783,4.011 4.544,4.246 4.250,4.246 C3.958,4.246 3.722,4.011 3.722,3.718 L3.722,2.654 L1.418,2.654 C1.223,2.654 1.066,2.812 1.066,3.007 L1.066,15.580 C1.066,15.777 1.223,15.935 1.418,15.935 L15.587,15.935 C15.781,15.935 15.940,15.777 15.940,15.580 L15.940,3.007 ZM11.159,11.687 L13.283,11.687 L13.283,13.279 L11.159,13.279 L11.159,11.687 ZM11.159,9.030 L13.283,9.030 L13.283,10.622 L11.159,10.622 L11.159,9.030 ZM11.159,6.374 L13.283,6.374 L13.283,7.966 L11.159,7.966 L11.159,6.374 ZM7.439,11.687 L9.563,11.687 L9.563,13.279 L7.439,13.279 L7.439,11.687 ZM7.439,9.030 L9.563,9.030 L9.563,10.622 L7.439,10.622 L7.439,9.030 ZM7.439,6.374 L9.563,6.374 L9.563,7.966 L7.439,7.966 L7.439,6.374 ZM3.722,11.687 L5.846,11.687 L5.846,13.279 L3.722,13.279 L3.722,11.687 ZM3.722,9.030 L5.846,9.030 L5.846,10.622 L3.722,10.622 L3.722,9.030 ZM3.722,6.374 L5.846,6.374 L5.846,7.966 L3.722,7.966 L3.722,6.374 Z" class="cls-1"/>
</svg>
