<svg xmlns="http://www.w3.org/2000/svg" xmlns:xlink="http://www.w3.org/1999/xlink" preserveAspectRatio="xMidYMid" width="17" height="13" viewBox="0 0 17 13">
  <defs>
    <style>
      .cls-1 {
        fill: #322c2c;
        fill-rule: evenodd;
      }
    </style>
  </defs>
  <path d="M16.423,13.000 L0.576,13.000 C0.258,13.000 -0.000,12.729 -0.000,12.394 L-0.000,0.606 C-0.000,0.271 0.258,-0.000 0.576,-0.000 L16.423,-0.000 C16.742,-0.000 17.000,0.271 17.000,0.606 L17.000,12.394 C17.000,12.729 16.742,13.000 16.423,13.000 ZM15.847,1.212 L1.153,1.212 L1.153,11.787 L15.847,11.787 L15.847,1.212 ZM3.268,3.036 L8.500,6.427 L13.732,3.036 C14.003,2.860 14.358,2.949 14.525,3.235 C14.692,3.519 14.608,3.893 14.336,4.069 L8.802,7.655 C8.710,7.716 8.605,7.746 8.500,7.746 C8.395,7.746 8.290,7.716 8.197,7.655 L2.663,4.069 C2.392,3.893 2.308,3.519 2.475,3.235 C2.642,2.949 2.997,2.861 3.268,3.036 Z" class="cls-1"/>
</svg>
