<svg xmlns="http://www.w3.org/2000/svg" xmlns:xlink="http://www.w3.org/1999/xlink" preserveAspectRatio="xMidYMid" width="17" height="16" viewBox="0 0 17 16">
  <defs>
    <style>
      .cls-1 {
        fill: #322c2c;
        fill-rule: evenodd;
      }
    </style>
  </defs>
  <path d="M14.395,12.504 L14.395,15.415 C14.395,15.652 14.250,15.865 14.027,15.955 C13.953,15.985 13.876,16.000 13.799,16.000 C13.644,16.000 13.492,15.940 13.378,15.829 L10.012,12.527 L2.980,12.527 C1.337,12.527 -0.000,11.215 -0.000,9.603 L-0.000,2.924 C-0.000,1.311 1.337,-0.000 2.980,-0.000 L14.019,-0.000 C15.663,-0.000 17.000,1.311 17.000,2.924 L17.000,9.603 C17.000,11.090 15.862,12.322 14.395,12.504 ZM15.808,2.924 C15.808,1.956 15.006,1.169 14.019,1.169 L2.980,1.169 C1.994,1.169 1.192,1.956 1.192,2.924 L1.192,9.603 C1.192,10.570 1.994,11.357 2.980,11.357 L10.259,11.357 C10.417,11.357 10.568,11.419 10.680,11.528 L13.203,14.003 L13.203,11.942 C13.203,11.619 13.470,11.357 13.799,11.357 L14.019,11.357 C15.006,11.357 15.808,10.570 15.808,9.603 L15.808,2.924 ZM12.887,8.585 L4.113,8.585 C3.784,8.585 3.516,8.323 3.516,8.000 C3.516,7.677 3.784,7.415 4.113,7.415 L12.887,7.415 C13.216,7.415 13.483,7.677 13.483,8.000 C13.483,8.323 13.216,8.585 12.887,8.585 ZM12.887,5.310 L4.113,5.310 C3.784,5.310 3.516,5.048 3.516,4.725 C3.516,4.402 3.784,4.140 4.113,4.140 L12.887,4.140 C13.216,4.140 13.483,4.402 13.483,4.725 C13.483,5.048 13.216,5.310 12.887,5.310 Z" class="cls-1"/>
</svg>
