<svg xmlns="http://www.w3.org/2000/svg" xmlns:xlink="http://www.w3.org/1999/xlink" preserveAspectRatio="xMidYMid" width="14" height="18" viewBox="0 0 14 18">
  <defs>
    <style>
      .cls-1 {
        fill: #322c2c;
        fill-rule: evenodd;
      }
    </style>
  </defs>
  <path d="M10.694,-0.002 L1.161,-0.002 C0.521,-0.002 0.000,0.494 0.000,1.101 L0.000,16.897 C0.000,17.505 0.521,18.000 1.161,18.000 L12.839,18.000 C13.479,18.000 14.000,17.505 14.000,16.897 L14.000,3.411 L10.694,-0.002 ZM10.969,1.650 L12.418,3.147 L10.969,3.147 L10.969,1.650 ZM13.024,16.895 C13.024,16.994 12.941,17.073 12.839,17.073 L1.161,17.073 C1.059,17.073 0.976,16.994 0.976,16.895 L0.976,1.101 C0.976,1.004 1.059,0.925 1.161,0.925 L9.992,0.925 L9.992,3.610 C9.992,3.866 10.212,4.073 10.481,4.073 L13.024,4.073 L13.024,16.895 ZM2.697,4.929 L10.980,4.929 C11.181,4.929 11.345,5.085 11.345,5.276 C11.345,5.468 11.181,5.624 10.980,5.624 L2.697,5.624 C2.494,5.624 2.330,5.468 2.330,5.276 C2.330,5.085 2.494,4.929 2.697,4.929 L2.697,4.929 ZM11.345,7.610 C11.345,7.801 11.181,7.957 10.980,7.957 L2.697,7.957 C2.494,7.957 2.330,7.801 2.330,7.610 C2.330,7.418 2.494,7.263 2.697,7.263 L10.980,7.263 C11.181,7.263 11.345,7.418 11.345,7.610 L11.345,7.610 ZM11.345,9.868 C11.345,10.059 11.181,10.215 10.980,10.215 L2.697,10.215 C2.494,10.215 2.330,10.059 2.330,9.868 C2.330,9.676 2.494,9.520 2.697,9.520 L10.980,9.520 C11.181,9.520 11.345,9.676 11.345,9.868 L11.345,9.868 ZM11.345,12.163 C11.345,12.355 11.181,12.511 10.980,12.511 L2.697,12.511 C2.494,12.511 2.330,12.355 2.330,12.163 C2.330,11.972 2.494,11.816 2.697,11.816 L10.980,11.816 C11.181,11.816 11.345,11.972 11.345,12.163 L11.345,12.163 Z" class="cls-1"/>
</svg>
